<?xml version="1.0" encoding="UTF-8" standalone="no"?><!DOCTYPE svg PUBLIC "-//W3C//DTD SVG 1.1//EN" "http://www.w3.org/Graphics/SVG/1.1/DTD/svg11.dtd"><svg width="100%" height="100%" viewBox="0 0 1265 1126" version="1.1" xmlns="http://www.w3.org/2000/svg" xmlns:xlink="http://www.w3.org/1999/xlink" xml:space="preserve" xmlns:serif="http://www.serif.com/" style="fill-rule:evenodd;clip-rule:evenodd;stroke-linejoin:round;stroke-miterlimit:2;"><path d="M753.179,412.399c-7.754,-32.521 -6.971,-58.825 -6.971,-58.825c0,-0 21.675,13.925 39.48,27.871c17.791,13.933 37.145,22.437 29.408,37.933c-7.729,15.479 -33.575,42.567 -33.575,42.567c-0,-0 -20.617,-17.017 -28.342,-49.546Zm157.404,9.6c21.68,-1.567 20.625,8.704 22.163,15.571c1.325,5.746 11.817,32.312 11.817,32.312c-0,0 -2.538,-38.933 2.133,-37.358c4.65,1.562 27.854,22.404 15.483,47.596c-12.391,25.171 -63.479,29.041 -111.487,-25.134c-0,0 38.246,-31.475 59.891,-32.987Zm85.371,43.941c3.471,-4.479 12.479,-7.683 12.479,-7.683c0,0 3.171,11.021 -2.345,15.375c-5.492,4.354 -13.655,-3.162 -10.134,-7.692Zm8.021,353.671c-89.812,-7.791 -171.842,27.817 -199.712,9.242c-36.834,-24.562 -17.875,-132.067 7.904,-208.596c29.012,5.821 74.421,-1.162 112.837,-17.437c45.671,-19.367 62.717,-58.842 77.417,-87.459c14.729,-28.662 12.375,-64.258 12.375,-64.258c-0,0 -13.921,2.308 -19.35,-0.796c-5.417,-3.066 -6.954,-13.112 -21.663,-31.7c-14.733,-18.575 -56.5,-43.358 -91.333,-48.004c-34.842,-4.637 -80.517,10.062 -80.517,10.062c0,0 -9.279,-6.183 -20.908,-15.474c-11.592,-9.288 -40.362,-26.346 -40.362,-26.346c-0,-0 -6.063,24.008 -14.596,56.533c-8.521,32.487 -27.867,58.033 -13.917,122.296c9.217,42.604 32.65,69.25 48.704,80.6c0.721,0.508 1.5,1.029 2.342,1.558c-6.429,32.058 -24.125,89.925 -40.975,114.475c-34.071,49.513 -55.75,72.738 -139.354,46.434c-83.592,-26.317 -128.505,-66.588 -216.742,-66.588c-39.621,-0 -107.038,35.883 -137.667,44.554c-0.8,-0.812 -16.758,-17.575 -16.045,-66.225c0.766,-54.2 18.075,-92.2 69.658,-155.616c64.254,-78.963 102.946,-118.434 100.612,-222.955c-2.266,-102.429 -61.908,-201.229 -151.687,-213.62c-89.804,-12.405 -87.438,55.637 -67.367,88.25c17.159,27.85 84.388,10.829 124.638,30.962c40.25,20.117 40.25,78.958 32.508,143.983c-7.742,65.013 -86.696,131.567 -131.596,207.434c-44.896,75.866 -41.804,162.587 -21.683,233.783c9.329,33.004 31.5,87.008 61.037,87.008l888.454,0c0,0 -23.216,-44.395 -113.012,-52.1Z" style="fill:#fff;fill-rule:nonzero;"/><path d="M1146.17,872.29l-1.371,0.075l11.454,-0.129l-10.083,0.054Z" style="fill:#fff;fill-rule:nonzero;"/><path d="M1218.86,872.916c-6.875,-0.7 -26.337,-0.096 -39.291,-0.425l-2.134,-0.134l-5.841,0.346c15.741,0.117 36.187,-0.054 47.266,0.213Z" style="fill:#fff;fill-rule:nonzero;"/><path d="M1257.14,867.749c-0.079,1.112 -0.129,0.671 -0.158,-0.067c-0.017,-0.541 -0.029,-1.208 -0.029,-1.341c-0,0.158 -0,0.42 -0.012,2.52c-0.005,1.35 -0.017,3.23 -0.034,5.763c-2.175,0.037 -4.908,0.071 -8.321,0.121c1.054,0.046 1.371,0.058 1.988,0.091c1.379,-0.016 3.029,-0.037 5.146,-0.062l0.808,-0.013c0.283,0.013 0.633,0.075 0.525,-0.366c0.008,-0.621 0.012,-1.284 0.025,-1.979c0.021,-1.4 0.05,-2.942 0.062,-4.667Z" style="fill:#fff;fill-rule:nonzero;"/><path d="M1250.57,874.836c-4.546,-0.016 -2.767,0.038 -1.346,0.1c1.267,0 2.625,-0.008 3.212,-0.016c0.659,-0.021 0.355,-0.054 -1.866,-0.084Z" style="fill:#fff;fill-rule:nonzero;"/><path d="M1257.33,837.803l0.155,10.733c0.216,-2.246 0.408,-11.791 0.5,-8.241c-0,-11.004 -0.25,-8.742 -0.655,-2.492Z" style="fill:#fff;fill-rule:nonzero;"/><path d="M1256.81,827.636l0.071,5.563c0.096,-0.971 0.142,-2.446 -0.071,-5.563Z" style="fill:#fff;fill-rule:nonzero;"/><path d="M1257.01,844.986l-0.134,-11.787c-0.158,1.554 -0.441,1.712 0.042,5.404c-0.246,-0.958 -0.017,1.375 0.092,6.383Z" style="fill:#fff;fill-rule:nonzero;"/><path d="M1256.81,851.649c-0.241,6.021 -0.416,13.791 -0.596,3.025c0.025,5.116 0.038,8.758 0.042,11.067c0.029,1.358 0.058,2.312 0.075,2.916c0.029,0.742 0.063,0.967 0.096,0.679c0.013,-0.421 0.062,-1.141 0.121,-2.3c0.025,-0.833 0.058,-1.958 0.104,-3.375c0.042,-2.854 0.096,-6.875 0.158,-12.012Z" style="fill:#fff;fill-rule:nonzero;"/><path d="M1222.58,872.232l-7.567,-0.229l-6.537,0.196c3.266,-0.092 14.571,0.246 14.104,0.033Z" style="fill:#fff;fill-rule:nonzero;"/><path d="M1258.69,771.003c-0.22,-0.671 -0.65,3.608 -0.941,4.408l0.167,7.917c0.195,-4.071 0.425,-11.783 0.774,-12.325Z" style="fill:#fff;fill-rule:nonzero;"/><path d="M1257.75,775.411l-0.271,-11.854c-0.142,10.588 0.017,12.525 0.271,11.854Z" style="fill:#fff;fill-rule:nonzero;"/><path d="M1255.83,825.724l0.517,19.471l-0.492,-23.221l-0.025,3.75Z" style="fill:#fff;fill-rule:nonzero;"/><path d="M1259.28,725.74l0.496,6.721l-0.733,-11.962l0.237,5.241Z" style="fill:#fff;fill-rule:nonzero;"/><path d="M1259.54,695.72c0.458,4.971 0.975,-6.821 1.225,-1.559c0.025,-8.162 -0.346,-15.125 -0.688,-21.391c0.159,6.662 0,13.762 -0.537,22.95Z" style="fill:#fff;fill-rule:nonzero;"/><path d="M1259.59,662.236c0.155,3.284 0.317,6.754 0.492,10.534c-0.079,-3.542 -0.225,-7.025 -0.492,-10.534Z" style="fill:#fff;fill-rule:nonzero;"/><path d="M1257.78,743.366c0.159,-0.913 0.559,-2.676 0.796,-9.321l-0.741,4.654c-0.017,1.433 -0.03,3.037 -0.055,4.667Z" style="fill:#fff;fill-rule:nonzero;"/><path d="M1257.81,738.866l0.025,-0.167c0.07,-5.054 0.12,-8.563 0.133,-10.067c-0.013,1.292 -0.063,4.375 -0.158,10.234Z" style="fill:#fff;fill-rule:nonzero;"/><path d="M1257.77,744.545c0.008,-0.434 0.012,-0.75 0.016,-1.179c-0.075,0.454 -0.1,0.725 -0.016,1.179Z" style="fill:#fff;fill-rule:nonzero;"/><path d="M1256.57,794.653c-0.267,-6.962 -0.571,-21.471 -1.163,-7.421c0.388,4.992 0.742,-3.054 1.163,7.421Z" style="fill:#fff;fill-rule:nonzero;"/><path d="M1256.88,750.328l-0.246,12.592c0.171,-0.242 0.442,-2.517 0.592,0.933l-0.346,-13.525Z" style="fill:#fff;fill-rule:nonzero;"/><path d="M1256.71,744.17l0.171,6.158l0.083,-4.654l-0.254,-1.504Z" style="fill:#fff;fill-rule:nonzero;"/><path d="M1258.62,683.803c-0.283,-5.438 -0.267,-11.383 -0.267,-18.1c-0.221,7.192 -0.362,14.637 -0.412,21.708c0.233,0.996 0.637,4.109 0.679,-3.608Z" style="fill:#fff;fill-rule:nonzero;"/><path d="M1258.16,710.561l-0.03,-1.204c-0.075,0.742 -0.096,1.333 0.03,1.204Z" style="fill:#fff;fill-rule:nonzero;"/><path d="M1258.9,599.553l-0.175,1.058l0.159,0.246l0.016,-1.304Z" style="fill:#fff;fill-rule:nonzero;"/><path d="M1257.78,688.628c-0.183,5.413 -0.02,8.637 0.184,11.725c-0.009,-4.05 -0.017,-8.346 -0.025,-12.942c-0.109,-0.445 -0.179,-0.525 -0.159,1.217Z" style="fill:#fff;fill-rule:nonzero;"/><path d="M1259.39,643.786c-0.163,2.846 -0.355,6.034 -0.538,9.375c0.283,-2.754 0.746,-8.375 0.538,-9.375Z" style="fill:#fff;fill-rule:nonzero;"/><path d="M1258.35,707.528l0.025,0.813c0.179,-1.78 0.1,-1.555 -0.025,-0.813Z" style="fill:#fff;fill-rule:nonzero;"/><path d="M1258.35,707.528c-0.079,-2.783 -0.242,-4.975 -0.383,-7.175c0.054,3.279 0.112,6.333 0.166,9.004c0.071,-0.646 0.159,-1.308 0.217,-1.829Z" style="fill:#fff;fill-rule:nonzero;"/><path d="M1253.08,579.507c0.879,0.963 1.629,15.188 0.742,27.475c0.617,12.088 3.275,4.183 4.908,-6.371c-0.367,-0.375 -0.692,-0.375 -1.117,-12.816c-0.504,4.362 -1.208,27.6 -1.916,17.112c-0.388,-16.479 0.333,-13.504 0.825,-21.521c-1.083,6.813 -1.513,-20.958 -3.142,-17.371l0.563,14.455c-0.246,0.266 -0.646,-4.975 -0.863,-0.963Z" style="fill:#fff;fill-rule:nonzero;"/><path d="M1258.47,624.311l0.062,5.121c0.183,-5.833 0.534,-10.008 1.246,-17.7c-0.317,-8.521 -0.621,-10.283 -0.887,-10.875l-0.313,25.213l-0.108,-1.759Z" style="fill:#fff;fill-rule:nonzero;"/><path d="M1258.34,652.42c-0.792,-4 -1.092,-16.292 -2.05,-8.767c-0.009,15.021 0.658,10.525 0.95,19.5c-0.046,-24.242 0.408,6.963 1.008,-10.546c0.042,4.783 0.075,9.054 0.104,13.096c0.175,-4.358 0.333,-8.558 0.496,-12.542l-0.063,0.555l0,0.116l-0.008,-0.029c-0.116,1.046 -0.187,1.392 -0.108,0.217l-0.013,-0.505c-0.121,-0.166 -0.212,-0.612 -0.308,-1.095c0.229,-7.021 0.225,-1.105 0.308,1.095l0.121,0.288l0.008,-0.087l-0.258,-24.284c-0.167,5.146 -0.187,11.571 -0.187,22.988Z" style="fill:#fff;fill-rule:nonzero;"/><path d="M1254.1,774.27c0.058,-0.75 0.1,-0.713 0.146,-0.771c-0.075,-1.571 -0.129,-2.163 -0.146,0.771Z" style="fill:#fff;fill-rule:nonzero;"/><path d="M1254.5,764.286c0.083,1.767 0.337,3.238 0.262,8.975c-0.208,4.98 -0.308,-0.029 -0.52,0.238c0.175,3.454 0.425,12.1 0.766,1.258l-0.087,-1.721c0.241,-9.775 1.137,-22.337 1.225,-20.625c-0.613,2.846 -1.059,5.367 -1.646,11.875Z" style="fill:#fff;fill-rule:nonzero;"/><path d="M1256.05,707.653l-0.296,-20.217l-0.7,10.296l0.4,-0.525c-0.187,11.5 0.3,9.017 0.596,10.446Z" style="fill:#fff;fill-rule:nonzero;"/><path d="M1259.38,597.236l0.938,2.684l-1.271,-11.684l0.333,9Z" style="fill:#fff;fill-rule:nonzero;"/><path d="M1259.48,570.957l0.871,0.975l-0.467,-6.933l-0.404,5.958Z" style="fill:#fff;fill-rule:nonzero;"/><path d="M384.975,21.961l-5.583,0.455c2.637,-0.142 4.341,-0.296 5.583,-0.455Z" style="fill:#fff;fill-rule:nonzero;"/><path d="M425.421,22.132l0.991,-0.804c-1.87,0.438 -2.641,0.771 -0.991,0.804Z" style="fill:#fff;fill-rule:nonzero;"/><path d="M1172.44,2.603c-8.133,-1.446 -17.224,-3.708 -16.237,-1.979l2.492,1.687c5.687,-0.283 10.045,-0.079 13.745,0.292Z" style="fill:#fff;fill-rule:nonzero;"/><path d="M756.846,12.616c0.779,0.179 1.591,0.366 2.379,0.55c1.983,-0.621 3.829,-1.213 5.5,-1.742c-2.375,0.362 -5.054,0.767 -7.879,1.192Z" style="fill:#fff;fill-rule:nonzero;"/><path d="M751.108,20.161l-10.729,-1.175c2.413,0.409 5.863,0.805 10.729,1.175Z" style="fill:#fff;fill-rule:nonzero;"/><path d="M164.067,23.178l-6.513,1.683c10.2,0.038 5.713,-0.846 6.513,-1.683Z" style="fill:#fff;fill-rule:nonzero;"/><path d="M1260.89,301.824c0.537,-7.467 0.783,-13.413 0.875,-18.629c-0.8,8.995 -1.942,16.254 -0.875,18.629Z" style="fill:#fff;fill-rule:nonzero;"/><path d="M400.888,3.011c-3.417,0.33 -4.876,0.696 -4.775,1.096c3.516,-0.312 5.508,-0.658 4.775,-1.096Z" style="fill:#fff;fill-rule:nonzero;"/><path d="M1261.9,261.62c-0.108,1.333 -0.221,2.604 -0.329,3.946c0.183,5.462 0.325,10.954 0.2,17.629c0.596,-6.646 1.004,-14.259 0.129,-21.575Z" style="fill:#fff;fill-rule:nonzero;"/><path d="M10.704,697.04c-0.029,0.617 -0.066,1.346 -0.1,1.926c0.092,0.187 0.104,-0.671 0.1,-1.926Z" style="fill:#fff;fill-rule:nonzero;"/><path d="M76.213,872.349c-2.309,0.033 -6.051,0.079 -9.588,0.133c1.733,-0.029 4.596,-0.066 9.588,-0.133Z" style="fill:#fff;fill-rule:nonzero;"/><path d="M1260.77,465.228c0.029,5.571 0.121,0.879 -0,0Z" style="fill:#fff;fill-rule:nonzero;"/><path d="M1256.35,492.328c-0.113,-1.179 -0.267,-2.083 -0.504,-2.221c0.254,0.454 0.408,1.238 0.504,2.221Z" style="fill:#fff;fill-rule:nonzero;"/><path d="M1253.67,206.107l0.004,-0.483c-0.266,1.658 -0.212,1.371 -0.004,0.483Z" style="fill:#fff;fill-rule:nonzero;"/><path d="M1260.21,473.616c0.108,-2.109 0.233,-4.517 0.379,-7.13c-0.067,1.167 -0.175,3.334 -0.379,7.13Z" style="fill:#fff;fill-rule:nonzero;"/><path d="M1260.73,472.491c-0.054,1.916 -0.108,3.429 -0.141,4.866c0.175,0.704 0.291,0.084 0.141,-4.866Z" style="fill:#fff;fill-rule:nonzero;"/><path d="M1260.77,457.465c-0.067,3.184 -0.125,6.155 -0.179,9.021c0.079,-1.091 0.145,-1.554 0.179,-1.258l-0,-7.763Z" style="fill:#fff;fill-rule:nonzero;"/><path d="M10.742,240.507c-0.046,0.371 -0.084,0.784 -0.13,1.192c0.513,5.629 0.438,3.158 0.13,-1.192Z" style="fill:#fff;fill-rule:nonzero;"/><path d="M1036.06,20.299l0.592,-0.088l-0.771,-0.058l0.179,0.146Z" style="fill:#fff;fill-rule:nonzero;"/><path d="M1017.23,21.645c8.013,-2.2 12.575,-1.938 18.646,-1.492l-6.229,-5.025l-12.417,6.517Z" style="fill:#fff;fill-rule:nonzero;"/><path d="M1.429,300.032l0.338,-3.662c0.425,8.279 0.066,5.966 -0.338,3.662Zm1258.06,122.967c0.171,1.896 0.345,1.767 0.529,0.962c-0.313,-1.316 -0.313,-5.55 -0.196,-10.375c-0.337,1.346 -0.587,3.775 -0.333,9.413Zm0.675,-18.854l-0.063,-0.442c0.567,-9.075 0.346,-5.858 0.063,0.442Zm-474.234,-387.642c-2.841,0.667 -7.25,0.337 -12.212,-0.425c3.6,-0.167 7.683,-0.092 12.212,0.425Zm-300.275,4.821c-3.825,0.417 -11.454,1.712 -14.258,0.525c4.363,-2.296 7.733,-1.196 14.258,-0.525Zm-197.533,0.933l13.217,1.613c-15.954,2.546 -27.492,1.587 -15.084,3.85c1.867,-5.455 51.375,-0.392 53.213,-5.904l8.717,1.183c-2.496,-0.059 -2.896,0.266 -5.367,0.208c16.95,2.692 12.583,-3.983 34.425,-3.158c7.604,0.437 12.917,1.258 7.729,1.912l16.95,-1.358c4.938,0.112 3.733,1.087 -1.179,0.971l25.858,-0.413l-0.192,0.167c3.692,-0.879 12.046,-2.233 16.13,-2.812c6.571,0.816 -3.296,0.6 -1.613,1.299l14.317,-1.349c5.833,1.47 -6.033,2.87 -15.921,2.649c13.371,5.646 11.888,-1.4 40.737,1.93l-13.512,0.7c8.712,3.229 19.258,2.07 34.55,4.096c-3.629,-1.055 -30.604,-5.084 -15.067,-6.48c4.384,0.434 10.154,0.642 18.542,-0.495c0.075,2.016 8.258,1.529 18.5,1.424l-0.7,2.68c11.079,-0.763 10.196,-2.125 16.717,-3.325c12.341,0.271 14.9,2.35 17.812,4.108c19.759,0.446 -13.654,-3.346 9.742,-3.837c16.437,1.033 27.979,-0.059 47.646,-1.663c11.504,0.933 -2.017,1.646 2.116,2.417l10.196,-2.146c2.496,0.054 1.692,0.712 1.283,1.046c8.596,-0.829 0.705,-2.692 14.221,-3.421c3.642,-2.967 27.734,4.346 44.459,0.967c4.116,0.766 -1.996,1.654 -0.734,2.691c22.946,-2.216 19.667,-1.608 38.5,-4.587l16.046,1.766c-11.787,-2.016 3.275,-4.408 16.467,-6.37c-4.175,-0.971 -7.754,-1.83 -10.146,-2.234l21.054,-1.437c2.55,0.437 0.425,1.358 -3.029,2.479c1.429,-0.238 2.792,-0.458 3.858,-0.642c7.534,0.996 3.638,2.538 -1.762,4.042c-2.558,-0.554 -5.1,-1.113 -7.596,-1.658c-5.2,1.633 -10.062,3.441 -8.975,5.016c1.371,-0.304 4,-0.571 6.9,-0.725c-1.362,0.442 -2.229,0.838 -1.596,1.108c0.713,0.284 2.913,-0.312 6.354,-0.999l4.784,2.991l1.162,-1.191l27.554,1.849c19.709,-3.02 36.859,-7.441 68.142,-8.666c-7.758,2.179 -1.663,3.554 -2.087,6.133c-8.538,-2.721 -24.234,1.175 -40.446,0.629c8.458,0.288 6.6,1.521 4.454,1.95l28.908,-2.504c-0.65,2.109 6.142,1.575 13.696,2.429c-5.712,-4.15 21.554,-2.791 33.329,-4.07c0.725,1.391 -2.096,2.812 -16.45,2.495c15.838,3.092 20.467,-4.887 36.017,-2.25c-3.508,0.038 -5.4,-0.175 -6.779,0.534c8.183,-1.238 28.2,-0.279 23.487,0.925l-3.487,0.033c23.266,0.458 70.837,-0.079 74.308,-3.521c0.229,0.446 -3.05,4.158 -4.458,4.859l41.525,-11.559c-3.659,2.938 10.387,9.884 -8.917,11.579c5.542,0.405 12.4,0.875 24.079,-0.179c-3.779,-0.408 -9.421,-4.208 -4.258,-4.483c14.183,3.229 9.85,1.729 27.329,4.45c-5.671,-0.613 0.625,-5.175 9.575,-5.029c-1.396,0.679 0.742,4.471 -2.521,4.95l22.283,-4.475c-5.558,0.808 -0.983,3.762 4.005,4.991c-2.317,-0.858 19.266,0.025 25.204,-0.429l-9.446,-0.991c25.163,0.591 24.858,-6.192 49.817,-5.963c-3.017,0.888 -7.463,5.508 5.229,6.017c5.821,-2.242 25.762,-10.613 47.85,-12.196l4.233,1.237c0,0 5.559,-0.341 11.125,-0.683c1.467,-0.083 2.95,-0.171 4.329,-0.25c0.709,-0.038 1.396,-0.079 2.038,-0.117c0.646,-0.029 1.442,-0.25 1.229,0.555c0.117,2.204 0.204,3.675 0.204,3.675c-0.187,-0.792 -0.379,-1.671 -0.604,-2.621l-0.163,-0.696l-0.108,-0.325l-0.5,0.087c-0.666,0.117 -1.35,0.238 -2.066,0.367c-2.576,0.479 -5.463,1.021 -8.567,1.596c-5.908,1.133 -10.529,2.371 -16.025,3.6c-10.746,2.462 -22.196,4.887 -30.271,6.271c9.413,0.958 2.617,1.466 16.721,1.304c4.979,1.142 -7.688,1.804 -11.833,1.891l32.829,0.596c-0.184,-0.316 0.071,-0.591 0.654,-0.841c0.537,-0.246 1.775,-0.463 1.879,-0.663c0.779,-0.396 2.042,-0.712 3.496,-1.012l1.112,-0.225c0.429,-0.121 0.8,-0.184 0.746,0.221c0.15,0.554 0.288,1.07 0.413,1.516c0.308,0.904 0.666,1.563 1.154,1.192c-0,-0 -0.142,-1.167 -0.358,-2.925c-0.059,-0.4 -0.117,-0.833 -0.175,-1.296c-0.488,-0.004 -1.101,0.129 -1.65,0.196c-1.067,0.154 -2.205,0.329 -3.338,0.5l-1.533,0.254c-0.496,0.083 -2.013,0.167 -2.913,0.246c-2.096,0.162 -4.05,0.308 -5.717,0.437c-3.345,0.263 -5.574,0.434 -5.574,0.434c-0.725,-1.263 4.433,-3.079 12.679,-4.513c1.654,-0.312 3.437,-0.637 5.325,-0.991c1.9,-0.296 4.041,-0.559 6.341,-0.763c0.684,1.513 0.471,4.2 0.659,6.538c0.07,2.483 0.091,4.841 0.045,8.145c-0.458,3.15 -1.499,1.971 -2.52,0.075c-0.496,-1 -1.025,-2.079 -1.454,-2.941c-0.425,-0.834 -0.771,-0.813 -0.971,-0.821c0.2,-0.038 0.4,2.292 0.583,4.554c0.133,2.404 0.296,5.304 0.45,8.175c0.229,5.75 0.283,11.387 0.008,12.521l-1.275,-10.492c-0.808,13.771 3.125,22.475 0.988,39.025c-0.133,5.713 -2.863,17.063 -1.521,18.05c2.542,-9.321 10.587,-11.141 12.508,-4.929c-0.187,2 -2.516,30 -3.758,36.517c-1.979,9.408 -4.767,-14.121 -6.471,-6.113c0.613,0.346 1.371,5.542 1.617,7.704c-0.5,6 -1.879,-2.483 -1.567,10.554c2.238,2.176 -0.121,26.521 1.908,6.163c0.655,12.754 -0.429,13.554 -0.304,28.529c1.417,-4.767 4.842,13.442 5.43,26.217c-0.555,-0.754 -1.263,2.121 -1.588,3.508c-0.196,26.138 -1.138,40.171 -1.133,64.542c-0.492,2.246 -1.067,14.017 -1.963,9c0.379,3.508 1.071,6.725 1.129,14.25c-1.712,14.546 -0.312,-16.767 -2.396,-5.675c1.188,0.95 1.684,19.442 2.426,30.15c1.779,-3.292 0.316,-24.742 -0.459,-35.463c2.542,-0.05 5.171,18.621 6.213,44.096c0.541,20.246 -1.584,8.779 -1.25,12.292c-0.475,38.033 4.016,32.408 2.195,63.987c-1.487,12.525 -2.875,0.563 -3.929,3.342c-0.55,-16.496 0.942,-25.325 0.913,-36.504l-0.721,13.762c-0.487,-5.25 -0.875,-16.258 -0.433,-22.254c-1.338,10.504 -0.271,64.25 -1.413,93.592c0.475,5.216 0.95,14.212 1.492,9.954l-0.184,-9.287c1.113,-8.526 1.496,17.479 2.03,5.72c0.746,12.463 1.858,26.421 1.179,43.955l-1.479,3.295c0.42,-0.375 0.912,-11.466 0.471,-16.391c0.616,7.304 -2.046,26.883 -0.171,34.891l1.05,-12.287c0.7,12.504 2.087,27.958 1.525,43.492c1.429,-7.067 -0.129,-3.575 1.575,-14.617c-2.096,9.566 0.404,-39.75 -1.896,-24.375c2.033,-11.325 0.946,-19.613 2.787,-34.417c-0.5,0.454 -0.995,5.246 -0.641,-7.8c-0.146,-0.591 -0.325,-1.975 -0.425,-2.862c0.02,-0.396 0.029,-0.534 0.046,-0.879l-0.075,0.72c-0.063,-0.566 -0.075,-0.612 -0.017,0.267c-0.242,3.108 -0.525,5.629 -0.813,6.646c-1.112,-6.475 -0.979,-27.217 -1.57,-34.233c0.283,-7.738 0.587,3.241 1.158,-0.984l-0.879,-10.483c1.166,-1.033 2.083,-20.558 2.654,-2.325l0.166,-16.417c0.742,-9.658 1.134,-22.95 0.667,-31.15c0.325,-7.733 -1.246,-19.546 -0.316,-12.804l-0.613,-25.742l0.317,-0.237c0.358,-25.392 -1.921,-52.271 0.675,-81.308c-0.296,-8.546 -0.684,-17.38 -0.221,-31.688l1.221,-2.783c-0.363,-10.979 1.425,-32.967 0.175,-37.684c3.412,-11.841 1.05,-53.27 1.758,-72.579l-1.683,-0.725c0.162,-13.292 -0.267,-26.033 -0.892,-42.525l-1.525,1.009c-0.6,-7.109 -0.308,-16.246 0.133,-26.425c0.229,-5.088 0.45,-10.438 0.688,-15.913c0.079,-2.737 0.158,-5.513 0.242,-8.3c0.008,-4.117 0.016,-8.258 0.037,-12.404c0.588,1.767 0.471,12.617 0.079,15.262l0.313,-2.529c0.095,-0.921 0.183,-1.433 0.254,-3.046l0.341,-8.445l0.159,-8.651l0.025,-4.337l-0.004,-1.071l-3.055,0c-5.425,0.075 -10.879,0.154 -16.345,0.229l-5.979,0.238l-4.901,0.279c-13.037,0.767 -25.779,1.7 -37.233,0.25c-5.712,0.6 -9.85,0.379 -13.85,-0.067c0.534,0 1.004,-0.033 1.413,-0.083c-0.584,-0.008 -1.45,-0.017 -2.342,-0.029c-2.521,-0.3 -5.133,-0.609 -7.938,-0.946c2.396,0.429 4.68,0.783 6.68,0.946c-4.409,0.029 -11.084,0.216 -17.638,0.633l-2.787,-1.871c-0.525,0.017 -0.954,0.034 -1.513,0.05c-6.425,-0.712 -5.166,0.863 -1.733,2.275c-3.3,0.3 -6.317,0.663 -8.663,1.113c-5.216,-3.046 -17.179,0.979 -24.304,-2.279c-4.408,1.562 -32.912,1.104 -36.404,4.471c-0.225,-0.438 -2.15,-0.646 1.387,-0.675c-7.308,-0.392 -14.595,-0.788 -21.141,0.158l-3.1,-2.45l-15.942,3.267c-9.675,-1.505 -13.696,-2.392 -4.075,-4.259c-23.225,2.867 -18.841,1.059 -38.579,3.938l0.958,-1.605c-7.054,0.051 -18.333,2.196 -22.591,0.859c-15.796,-3.1 -78.117,-0.509 -118.638,-3.446c7.854,4.858 -18.841,-2.196 -20.45,1.567c-2.35,-1.15 -8.004,-1.804 -1.446,-2.8c-20.679,1.112 -31.062,-1.855 -45.345,1.325c-2.367,-1.163 4.429,-1.692 2.324,-2.379c-1.666,0.245 -6.574,0.995 -8.729,0.308c-2.1,-0.692 3.038,-0.963 6.304,-1.467c-21.124,0.171 -23.262,3.733 -24.791,7.075c-10.713,-1.587 -16.054,-1.367 -23.779,0.829c-3.738,-1.1 -9.95,-2.245 3.179,-2.633c-7.392,-0.162 -45.117,-1.621 -45.871,1.067c-2.312,-0.684 -10.317,-0.2 -12.267,0.108c-16.566,-0.158 -18.025,-0.404 -34.291,-0.15l4.512,0.438c-6.425,3.245 -13.529,0.725 -26.65,1.12l0.379,-0.333c-30.079,-2.337 -12.983,1.121 -42.658,-1.542l1.612,2.017c-2.766,4.338 -26.291,-2.558 -43.516,-0.892l6.216,1.146c-9.404,1.483 -26.287,-5.871 -35.733,-6.396c-2.062,-0.375 3.25,-0.604 6.125,-0.887c-24.729,-2.525 -3.2,2.633 -21.637,3.254c-3.396,-1.412 4.387,-3.604 -8.021,-3.854c-6.175,-1.138 -35.971,4.616 -52.892,1.942c3.725,1.079 7.425,2.154 -1.133,2.983c-13.121,0.392 -35.471,-4.038 -47.317,-0.629c-1.666,-0.292 -2.3,-0.575 -2.366,-0.838c-10.034,0.879 -32.592,1.496 -38.638,3.325c-9.267,-6.733 -62.346,3.338 -62.125,-2.854l-30.85,0.396l0.808,-0.629c-19.72,-0.354 -26.691,1.121 -33.62,2.579c-4.563,-0.4 -1.234,-0.971 -0.855,-1.292c-28.812,-1.171 -31.679,-0.871 -55.833,2.134l-2.512,-1.921c-6.55,1.116 -41.655,-2.896 -69.913,-0.588c0.279,-0.212 0.863,-0.579 3.104,-0.85c-15.9,1.15 -34.925,-0.096 -51.433,-0.729c-8.258,-0.329 -15.883,-0.496 -22.171,-0.175c-3.146,0.154 -5.958,0.437 -8.35,0.888c-1.196,0.225 -2.283,0.491 -3.254,0.804c-0.829,0.312 -2.525,0.675 -3.363,1.087c0,0 -7.095,0.417 -14.191,0.834l-0.634,0.037l-0.066,0.646l0.066,1.471c0.046,0.966 0.088,1.916 0.13,2.833c0.087,1.808 0.166,3.488 0.233,4.929c0.137,2.804 0.225,4.679 0.225,4.679c0.121,-4.608 0.204,-7.975 0.266,-10.391c0.075,-1.13 0.134,-2.025 0.18,-2.742c0.395,-0.325 1.229,0.029 1.55,0.017c0.796,0.154 0.945,0.321 0.725,0.504l-0.579,0.279c-0.221,0.142 -0.776,-0.004 -0.505,0.754c0.721,4.692 1.517,10.538 2.021,4.763c0.346,11.766 -1.825,29.591 -2.15,15.683l0.304,-2.187c-3.187,-5.121 -1.062,35.875 -3.191,35.095c0.3,56.809 -1.155,112.175 -0.984,165.388l2.155,-6.133l-0.063,18.558c-0.488,4.875 -1.658,6.546 -1.629,-6.7c-1.188,6.962 1.121,22.204 1.575,22.579c-0.754,25.925 -2.525,-10.121 -2.546,-2.167l0.217,10.792l0.233,-2.429c0.912,8.75 1.821,9.529 1.783,25.441c-0.375,10.071 -1.254,5.163 -1.312,9.13c-0.146,-0.025 -0.209,1.316 -0.029,6.079l-0.042,23.383l1.542,-9.35c0.829,10.367 -0.005,21.988 1.754,11.196c-2.696,15.842 -0.642,87.229 -1.404,96.958c1.104,14.517 1.121,28.846 1.075,46.596c0.258,-4.421 1.783,-7.058 1.625,8.254c-3.109,-5.6 -1.254,28.038 -3.292,40.409c1.329,-11.059 0.612,43.529 2.417,26.171c-0.175,12.775 -1.046,0.774 -1.642,10.47c1.2,30.409 -0.221,67.005 0.438,104.592c0.295,0.583 0.716,-5.708 1.204,2.35l-1.305,19.842c0.213,7.425 1.642,6.833 0.796,20.4c0.209,-1.913 0.534,-4.775 0.65,0.2c-0.425,36.812 0.159,74.425 0.492,112.179l0.233,28.333l0.092,14.171l0.037,7.079l0.03,4.546c0.1,0.304 -0.225,1.075 0.233,1l1.167,0.017l2.341,0.029c17.729,-0.046 35.425,-0.075 53.196,-0.125c-9.525,-0.054 -3.171,-0.167 4.096,-0.242c-4.725,0.009 0.108,-0.225 -0.821,-0.333l29.433,-0.013c6.909,-0.104 29.388,-0.429 34.63,-0.504l-9.321,0.1c12.396,-0.154 -17.346,-0.225 -15.533,-0.558c-13.875,0.267 -36.596,-0.888 -59.367,-0.483c-5.029,-0.167 4.287,-0.151 1.596,-0.313c-5.767,0.192 -12.738,0.221 -25.659,-0.033l1.459,-0.059c-4.534,-0.041 -8.746,-0.075 -12.725,-0.108l-1.863,0c-0.404,0.129 -0.287,-0.292 -0.3,-0.575l0.009,-0.879c0.02,-1.908 0.037,-3.763 0.058,-5.579c0.1,-7.659 0.2,-14.688 0.296,-21.892c0.254,-14.379 0.521,-29.383 0.904,-51.042l-0.579,3.213c0.141,-9.317 0.337,-11.279 0.521,-15.646c-0.792,-10.683 -0.259,26.171 -1.105,16.433c1.246,-12.362 0.379,-65.708 2.005,-74.062c0.133,-14.338 -0.838,4.2 -0.721,-10.125l0.475,-3.8l-0.555,-3.621c0.159,-9.404 0.784,-14.142 1.184,-14.492c-0.063,2.284 0.05,6.484 0.058,8.929c0.688,-12.187 0.142,-34.366 0.358,-38.554l-0.429,13.775c-0.166,-39.116 0.984,-86.883 -0.012,-124.675l-0.479,2.867c-0.738,-28.854 0.645,-23.112 0.395,-54.804l0.117,1.158c-0.471,-6.346 -0.696,-14.817 -0.6,-23.491c0.567,8.004 1.271,-15.05 1.892,-4.559c-0.867,-31.296 -0.721,-15.475 -2.658,-36.146l0.924,-4.762c-0.799,-7.054 -1.237,-7.638 -1.445,-23.458c0.762,12.97 1.471,-10.109 2.475,4.433c2.283,-33.208 -1.938,-49.308 1.296,-64.546c-2.709,-15.254 -1.65,28.742 -2.205,20.196c-0.895,7.15 -2,-12.584 -1.708,-23.008c0.067,-10.609 3.617,-18.038 3.712,-44.721c-0.024,2.654 0.192,2.833 0.167,5.483c0.792,-9.987 -0.912,-19.571 0.363,-31.821c-1.763,-6.858 0.179,-15.904 -2.121,-17.883l0.45,24.479c-0.529,-13.879 -3.233,-26.887 -1.867,-49.754c0.471,1.783 1.079,8.587 1.413,13.258c0.712,-6.683 -0.425,-12.871 0.308,-19.804c2.362,1.983 0.417,29.754 2.108,44.617c1.013,-7.171 -1.545,-28.125 0.938,-20.65c-3.175,-10.742 0.562,-26.292 -1.867,-44.367l1.438,1.196c-0.209,-2.863 -0.871,-8.788 -0.813,-14.05l1.838,9.529c-1.542,-14.633 1.566,-28.204 0.766,-42.242c-0.112,29.388 -1.82,6.596 -2.95,19.017c-1.862,-36.237 3.984,-20.837 3.496,-61.413c0.184,5.492 -1.021,20.625 -1.679,12.038c0.342,-7.729 0.975,-17.929 1.813,-22.671c-0.184,-26.879 -1.609,4.125 -2.5,-7.317c1.92,-9.149 -0.713,-13.195 -1.292,-24.983l1.592,-0.083c1.154,-30.633 -3.313,-8.121 -1.992,-35.7l2.212,11.654l-0.525,-14.375l1.834,2.967c-0.15,-1.959 -0.292,-3.75 -0.417,-5.404c-0.054,-0.809 -0.104,-1.592 -0.154,-2.342l-0.134,-0.884c-0.166,-1.166 -0.241,-2.274 -0.258,-3.324c0.034,-0.488 -0.087,-1.134 0.104,-1.467c0.521,0.042 1.063,0.079 1.634,0.125c1.137,0.117 2.412,0.242 3.937,0.396c-0.75,-0.309 -0.592,-0.667 -0.608,-1.025c-0.046,-0.354 0.575,-0.713 1.892,-1.034c2.483,-0.641 6.979,-1.133 13.358,-1.146c8.7,1.084 -4.871,1.676 13.212,1.48c-4.083,1.104 -8.554,2.475 -16.425,0.812c-0.804,0.567 -4.025,1.088 -4.858,1.65c9.367,1.254 23.55,0.4 30.096,0.404c-2.521,-0.075 -5.533,-0.183 -7.075,-0.445l26.212,-2.392c4.129,0.691 0.855,1.225 -2.391,1.746c5.312,-0.175 8.987,-0.996 16.791,-1.125c-2.02,1.47 -1.533,2.996 -12.587,3.633l24.979,-1.525c1.667,0.65 12.817,1.837 9.575,2.367c13.85,0.971 33.967,-2.759 52.325,-1.521c0.954,-0.296 2.867,-0.567 6.771,-0.771c17.258,0.392 32.546,2.363 52.991,0.3l11.605,2.821c16.02,-0.579 -15.704,-3.554 10.958,-4.538c18.887,-0.846 7.054,2.409 13.675,3.209c9.388,-1.379 25.713,-4.238 43.063,-1.896c-5.742,0.521 -10.246,0.096 -15.613,0.283Z" style="fill:#fff;fill-rule:nonzero;"/><path d="M751.883,19.286c-1.079,-0.341 -1.375,-0.721 -1.633,-1.104c-1.508,0.342 -1.533,0.733 1.633,1.104Z" style="fill:#fff;fill-rule:nonzero;"/><path d="M165.279,22.865l-0.604,-0.016l-0.608,0.329l1.212,-0.313Z" style="fill:#fff;fill-rule:nonzero;"/><path d="M1247.38,130.92c0.213,-3.884 0.5,-6.05 0.796,-7.488c-0.396,-0.212 -0.716,1.554 -0.796,7.488Z" style="fill:#fff;fill-rule:nonzero;"/><path d="M1260.82,522.916l-0.2,-12.076c0.012,5.842 -0.254,7.926 -0.459,10.871c0.271,-0.266 0.671,-2.566 0.659,1.205Z" style="fill:#fff;fill-rule:nonzero;"/><path d="M1253.79,627.749c0.045,1.808 0.091,3.696 0.137,5.483l0.442,-0.483c-0.021,-7.521 -0.383,-12.771 -0.579,-5Z" style="fill:#fff;fill-rule:nonzero;"/><path d="M1256.99,534.099c-0.946,0.954 -0.65,8.529 -0.505,16.996l0.005,-1.5c1.275,2.496 0.895,-6.525 0.5,-15.496Z" style="fill:#fff;fill-rule:nonzero;"/><path d="M1256.5,553.057l0,7.821c0.504,0.988 0.113,-3.175 0,-7.821Z" style="fill:#fff;fill-rule:nonzero;"/><path d="M1260.05,446.911c-0.3,4.017 1.321,2.517 0.871,4.788c1.312,4.483 -1.425,-26.746 -0.871,-4.788Z" style="fill:#fff;fill-rule:nonzero;"/><path d="M1253.88,540.949l1.163,-3.029l-0.938,-4.742l-0.225,7.771Z" style="fill:#fff;fill-rule:nonzero;"/><path d="M1254.81,474.149l-0.358,13.512c0.208,-0.2 0.325,1.517 0.417,3.625c0.045,-8.329 0.312,-17.458 -0.059,-17.137Z" style="fill:#fff;fill-rule:nonzero;"/><path d="M1254.87,491.286c-0.03,4.342 -0.004,8.471 0.183,10.88c-0.004,-2.346 -0.033,-7.396 -0.183,-10.88Z" style="fill:#fff;fill-rule:nonzero;"/><path d="M1253.53,522.47l0.246,-3.996l0.084,-9.546l-0.33,13.542Z" style="fill:#fff;fill-rule:nonzero;"/><path d="M1255.23,328.82l-0.4,-14.755c-0.504,-1.5 -0.813,2.521 -0.612,8.013c0.341,3.533 0.533,9.012 1.012,6.742Z" style="fill:#fff;fill-rule:nonzero;"/><path d="M1251.38,373.445c0.275,-3.992 0.587,-4.263 1.038,-6.509l-1.73,-0.45l0.692,6.959Z" style="fill:#fff;fill-rule:nonzero;"/><path d="M1250.85,330.415c-0.496,-1.47 -1.5,-21.416 -1.321,-2.708c0.496,1.492 0.95,16.267 1.321,2.708Z" style="fill:#fff;fill-rule:nonzero;"/><path d="M1252.99,108.107l0.033,3.754l3.4,-0.545l-3.433,-3.209Z" style="fill:#fff;fill-rule:nonzero;"/><path d="M1159.82,22.645c16.437,0.883 3.904,-2.438 18.762,-1.313c3.855,-0.933 -12.141,-0.916 -8.187,-1.733c-9.917,1.008 -15.129,0.471 -10.575,3.046Z" style="fill:#fff;fill-rule:nonzero;"/><path d="M1170.4,19.599c1.583,-0.188 3.254,-0.392 5.071,-0.609c-2.88,0.255 -4.225,0.442 -5.071,0.609Z" style="fill:#fff;fill-rule:nonzero;"/><path d="M114.933,871.995l10.58,-0.142l-6.83,0.063l-3.75,0.079Z" style="fill:#fff;fill-rule:nonzero;"/><path d="M135.233,871.615l2.488,0l6.35,-0.108c-2.375,0.029 -6.779,0.079 -8.838,0.108Z" style="fill:#fff;fill-rule:nonzero;"/><path d="M515.021,26.82l0.808,-0.654c-1.637,-0.709 -4.108,-0.763 -9.071,-0.88l8.263,1.534Z" style="fill:#fff;fill-rule:nonzero;"/><path d="M371.654,24.536l2.471,0.063l-4.612,-2.417l2.141,2.354Z" style="fill:#fff;fill-rule:nonzero;"/><path d="M251.325,27.174c4.917,0.116 10.687,-0.384 15.617,-0.263c-10.7,0.375 -16.942,-2.662 -15.617,0.263Z" style="fill:#fff;fill-rule:nonzero;"/><text x="30.363px" y="1114.44px" style="font-family:'Hamerald';font-size:329.167px;fill:#fff;">is cat codes</text></svg>