<?xml version="1.0" encoding="UTF-8" standalone="no"?><!DOCTYPE svg PUBLIC "-//W3C//DTD SVG 1.1//EN" "http://www.w3.org/Graphics/SVG/1.1/DTD/svg11.dtd"><svg width="100%" height="100%" viewBox="0 0 1410 1014" version="1.1" xmlns="http://www.w3.org/2000/svg" xmlns:xlink="http://www.w3.org/1999/xlink" xml:space="preserve" xmlns:serif="http://www.serif.com/" style="fill-rule:evenodd;clip-rule:evenodd;stroke-linejoin:round;stroke-miterlimit:2;"><g><path d="M154.219,308.438l660.937,-0c85.019,-0 154.219,-69.201 154.219,-154.219c0,-85.041 -69.2,-154.219 -154.219,-154.219l-66.093,0c-36.462,0 -66.094,29.632 -66.094,66.094c-0,36.44 29.632,66.093 66.094,66.093l66.093,0c12.139,0 22.032,9.87 22.032,22.032c-0,12.139 -9.893,22.031 -22.032,22.031l-660.937,-0c-12.184,-0 -22.031,9.848 -22.031,22.031l-0,88.125c-0,12.162 9.847,22.031 22.031,22.031Z" style="fill:#fff;fill-rule:nonzero;"/><path d="M154.219,484.688l969.375,-0c85.018,-0 154.219,-69.201 154.219,-154.219c-0,-85.041 -69.201,-154.219 -154.219,-154.219l-66.094,0c-36.462,0 -66.094,29.632 -66.094,66.094c0,36.44 29.632,66.094 66.094,66.094l66.094,-0c12.139,-0 22.031,9.869 22.031,22.031c0,12.139 -9.892,22.031 -22.031,22.031l-969.375,0c-12.184,0 -22.032,9.848 -22.032,22.031l0,88.125c0,12.162 9.848,22.031 22.032,22.031Z" style="fill:#fff;fill-rule:nonzero;"/><path d="M1255.78,528.75l-1101.56,0c-12.184,0 -22.031,9.848 -22.031,22.031l-0,88.125c-0,12.162 9.847,22.032 22.031,22.032l1101.56,-0c12.139,-0 22.032,9.869 22.032,22.031c-0,12.139 -9.893,22.031 -22.032,22.031l-66.093,0c-36.462,0 -66.094,29.632 -66.094,66.094c-0,36.439 29.632,66.094 66.094,66.094l66.093,-0c85.019,-0 154.219,-69.201 154.219,-154.219c0,-85.041 -69.2,-154.219 -154.219,-154.219Z" style="fill:#fff;fill-rule:nonzero;"/><path d="M947.344,705l-793.125,0c-12.184,0 -22.032,9.848 -22.032,22.031l0,88.125c0,12.162 9.848,22.032 22.032,22.032l793.125,-0c12.139,-0 22.031,9.869 22.031,22.031c0,12.139 -9.892,22.031 -22.031,22.031l-66.094,0c-36.462,0 -66.094,29.632 -66.094,66.094c0,36.439 29.632,66.094 66.094,66.094l66.094,-0c85.018,-0 154.219,-69.201 154.219,-154.219c-0,-85.041 -69.201,-154.219 -154.219,-154.219Z" style="fill:#fff;fill-rule:nonzero;"/><path d="M88.125,176.25l-66.094,0c-12.183,0 -22.031,9.848 -22.031,22.031c0,12.162 9.848,22.031 22.031,22.031l66.094,0c12.161,0 22.031,-9.869 22.031,-22.031c0,-12.183 -9.87,-22.031 -22.031,-22.031Z" style="fill:#fff;fill-rule:nonzero;"/><path d="M88.125,264.375l-66.094,0c-12.183,0 -22.031,9.848 -22.031,22.031c0,12.162 9.848,22.031 22.031,22.031l66.094,0c12.161,0 22.031,-9.869 22.031,-22.031c0,-12.183 -9.87,-22.031 -22.031,-22.031Z" style="fill:#fff;fill-rule:nonzero;"/><path d="M88.125,352.5l-66.094,0c-12.183,0 -22.031,9.848 -22.031,22.031c0,12.162 9.848,22.031 22.031,22.031l66.094,0c12.161,0 22.031,-9.869 22.031,-22.031c0,-12.183 -9.87,-22.031 -22.031,-22.031Z" style="fill:#fff;fill-rule:nonzero;"/><path d="M88.125,440.625l-66.094,0c-12.183,0 -22.031,9.848 -22.031,22.031c0,12.162 9.848,22.031 22.031,22.031l66.094,0c12.161,0 22.031,-9.869 22.031,-22.031c0,-12.183 -9.87,-22.031 -22.031,-22.031Z" style="fill:#fff;fill-rule:nonzero;"/><path d="M88.125,528.75l-66.094,0c-12.183,0 -22.031,9.848 -22.031,22.031c0,12.162 9.848,22.032 22.031,22.032l66.094,-0c12.161,-0 22.031,-9.87 22.031,-22.032c0,-12.183 -9.87,-22.031 -22.031,-22.031Z" style="fill:#fff;fill-rule:nonzero;"/><path d="M88.125,616.875l-66.094,0c-12.183,0 -22.031,9.848 -22.031,22.031c0,12.162 9.848,22.032 22.031,22.032l66.094,-0c12.161,-0 22.031,-9.87 22.031,-22.032c0,-12.183 -9.87,-22.031 -22.031,-22.031Z" style="fill:#fff;fill-rule:nonzero;"/><path d="M88.125,705l-66.094,0c-12.183,0 -22.031,9.848 -22.031,22.031c0,12.162 9.848,22.032 22.031,22.032l66.094,-0c12.161,-0 22.031,-9.87 22.031,-22.032c0,-12.183 -9.87,-22.031 -22.031,-22.031Z" style="fill:#fff;fill-rule:nonzero;"/><path d="M88.125,793.125l-66.094,0c-12.183,0 -22.031,9.848 -22.031,22.031c0,12.162 9.848,22.032 22.031,22.032l66.094,-0c12.161,-0 22.031,-9.87 22.031,-22.032c0,-12.183 -9.87,-22.031 -22.031,-22.031Z" style="fill:#fff;fill-rule:nonzero;"/></g></svg>